<svg width="800" height="400" viewBox="0 0 800 400" fill="none" xmlns="http://www.w3.org/2000/svg">
  <rect width="800" height="400" rx="4" fill="#3b82f6" fill-opacity="0.1"/>
  <rect x="200" y="100" width="400" height="200" rx="4" fill="#3b82f6" fill-opacity="0.2"/>
  <circle cx="350" cy="170" r="40" fill="#fbbf24" fill-opacity="0.3"/>
  <circle cx="450" cy="170" r="40" fill="#fbbf24" fill-opacity="0.3"/>
  <path d="M300 230C300 210 350 190 400 190C450 190 500 210 500 230V240C500 260 450 270 400 270C350 270 300 260 300 240V230Z" fill="#fbbf24" fill-opacity="0.3"/>
  <path d="M250 90L550 90M250 310L550 310" stroke="#3b82f6" stroke-width="2"/>
  <path d="M280 330L520 330M300 350L500 350" stroke="#fbbf24" stroke-width="2"/>
</svg>
