<svg width="533" height="387" viewBox="0 0 533 387" fill="none" xmlns="http://www.w3.org/2000/svg">
<path d="M313.947 301.946C322.237 285.106 335.613 271.171 350.402 259.85C362.332 250.718 375.812 241.84 389.937 236.595C402.46 231.944 405.24 242.884 415.351 246.627C421.812 249.019 428.983 245.361 434.063 240.707C438.965 236.216 443.02 230.585 448.868 227.226C453.184 224.747 459.624 223.513 464.15 226.168C469.773 229.467 468.818 237.584 476.41 238.511C479.949 238.943 483.474 237.672 486.675 236.102C494.205 232.409 501.667 228.994 509.745 226.623C517.047 224.48 526.504 223.769 530.72 230.104C534.765 236.182 530.923 244.426 526.055 249.866C514.337 262.961 497.012 270.03 479.593 272.348C474.842 272.981 469.952 273.317 465.567 275.25C461.181 277.183 457.305 281.167 457.126 285.957C457.03 288.536 457.997 291.052 458.03 293.632C458.12 300.792 451.052 306.142 444.072 307.739C426.105 311.85 414.406 296.069 397.509 293.648C378.353 290.904 348.865 293.894 335.563 310.021" fill="#C2ECFD"/>
<path opacity="0.5" d="M345.52 294.068C364.031 276.801 388.602 265.351 414.291 262.022C430.299 259.947 446.529 260.942 462.603 259.487C478.676 258.032 495.34 253.696 506.919 242.978" stroke="white" stroke-width="1.7443" stroke-miterlimit="10" stroke-linecap="round" stroke-linejoin="round"/>
<path d="M429.417 222.823C438.986 217.291 449.264 209.593 446.549 197.857C445.658 194.006 442.82 190.5 443.308 186.577C443.63 183.991 445.35 181.837 446.607 179.554C449.597 174.125 450.014 167.348 447.713 161.594C445.24 155.411 440.011 150.762 436.745 144.959C434.077 140.219 432.775 134.721 433.032 129.288C422.924 130.351 414.193 136.725 404.411 139.483C396.929 141.592 388.94 141.551 381.554 143.975C368.084 148.398 357.947 161.537 357.086 175.689C350.603 175.178 343.946 178.107 339.945 183.234C335.69 188.685 333.689 196.059 334.748 202.893C339.153 231.353 353.8 253.983 372.539 275.093C368.462 270.5 380.976 256.233 383.397 253.454C393.918 241.371 408.351 234.412 422.143 226.839C424.341 225.631 426.854 224.305 429.417 222.823Z" fill="#C2ECFD"/>
<g opacity="0.5">
<path d="M374.81 236.882C372.427 224.68 375.615 212.111 379.519 200.307C383.324 188.803 387.874 177.451 394.446 167.272C401.018 157.092 409.73 148.082 420.474 142.481" stroke="white" stroke-width="1.7443" stroke-miterlimit="10" stroke-linecap="round" stroke-linejoin="round"/>
<path d="M378.039 153.988C377.778 165.085 379.878 178.233 383.716 188.647" stroke="white" stroke-width="1.7443" stroke-miterlimit="10" stroke-linecap="round" stroke-linejoin="round"/>
<path d="M385.41 184.528C397.213 175.335 416.058 168.682 431.011 168.172" stroke="white" stroke-width="1.7443" stroke-miterlimit="10" stroke-linecap="round" stroke-linejoin="round"/>
<path d="M354.932 189.392C370.613 194.375 373.269 216.518 374.25 222.788" stroke="white" stroke-width="1.7443" stroke-miterlimit="10" stroke-linecap="round" stroke-linejoin="round"/>
<path d="M377.072 208.294C387.865 198.949 406.435 188.974 419.003 190.938" stroke="white" stroke-width="1.7443" stroke-miterlimit="10" stroke-linecap="round" stroke-linejoin="round"/>
<path d="M374.789 235.743C383.369 224.304 406.795 210.324 419.364 212.287" stroke="white" stroke-width="1.7443" stroke-miterlimit="10" stroke-linecap="round" stroke-linejoin="round"/>
<path d="M403.138 145.939C400.058 150.542 399.66 155.719 400.331 159.212" stroke="white" stroke-width="1.7443" stroke-miterlimit="10" stroke-linecap="round" stroke-linejoin="round"/>
<path d="M403.332 155.782C408.407 152.566 415.47 151.288 423.261 152.501" stroke="white" stroke-width="1.7443" stroke-miterlimit="10" stroke-linecap="round" stroke-linejoin="round"/>
</g>
<path d="M235.053 322.463C222.105 286.994 188.906 253.898 156.211 235.007C148.238 230.402 136.602 226.918 132.951 237.915C130.601 244.988 122.363 243.147 117.657 239.878C111.822 235.824 108.42 229.25 103.467 224.301C99.4828 220.32 94.4188 217.271 88.8588 216.376C83.2988 215.481 77.2488 216.931 73.1718 220.816C70.0798 223.762 68.2238 227.911 64.7998 230.465C59.0568 234.749 50.7068 233.155 44.5998 229.409C38.4928 225.663 33.6828 220.12 27.7618 216.084C21.8418 212.049 13.8658 209.659 7.56682 213.073C-0.780185 217.597 -1.54419 229.654 1.99981 238.462C4.18781 243.9 7.64582 251.788 11.8008 256.049C17.7018 262.1 26.2858 266.122 34.4958 267.734C40.5448 268.921 46.7998 268.887 52.7978 270.313C54.9628 270.828 57.4528 271.744 57.8858 274.24C58.5118 277.846 54.0518 280.055 51.4478 281.367C46.9398 283.639 42.4798 288.587 44.5828 293.176C45.9018 296.053 49.2768 297.337 52.3968 297.868C61.7678 299.461 71.0638 296.756 79.9498 294.018C85.3558 292.35 90.0998 288.972 95.6448 287.537C98.5288 286.792 105.911 286.466 105.114 291.337C104.865 292.861 103.779 294.112 102.606 295.116C101.433 296.12 100.118 296.981 99.1378 298.173C94.8778 303.356 99.1018 309.458 104.7 310.803C108.999 311.837 113.487 310.735 117.793 309.729C145.951 303.153 175.463 300.605 203.803 306.349C209.84 307.572 216.439 309.635 219.463 315.001" fill="#C2ECFD"/>
<path opacity="0.5" d="M204.695 300.108C183.984 280.948 156.545 268.3 127.897 264.708C110.046 262.47 91.9603 263.653 74.0393 262.106C56.1183 260.559 37.5253 255.803 24.5703 243.91" stroke="white" stroke-width="1.7443" stroke-miterlimit="10" stroke-linecap="round" stroke-linejoin="round"/>
<path opacity="0.25" d="M211.132 302.858C211.132 302.858 161.898 270.109 147.994 236.887C157.388 239.427 163.46 242.478 170.051 247.849C177.162 257.901 194.098 273.316 205.584 283.323C207.221 288.811 209.059 295.248 211.132 302.858Z" fill="#EECAB0"/>
<path d="M209.269 291.609C207.423 280.042 202.323 268.562 200.323 256.8C197.117 237.95 196.619 218.997 200.101 200.269C203.069 184.305 208.007 167.594 202.6 151.443C201.164 147.152 198.516 142.518 192.952 142.562C190.722 142.58 188.606 143.511 186.999 144.935C182.942 148.531 182.195 153.701 181.535 158.639L179.329 175.146C178.611 180.515 170.432 181.159 168.793 175.931C168.779 175.887 168.766 175.843 168.752 175.799C167.414 171.409 167.655 166.773 168.009 162.247C168.78 152.4 170.036 142.477 168.529 132.667C166.705 120.797 160.196 108.761 147.511 104.303C143.014 102.722 138.042 102.523 133.497 103.822C120.794 107.452 118.224 119.422 120.772 129.452C122.566 136.509 126.546 142.906 130.186 149.335C139.076 165.04 134.272 179.968 136.501 197.529C141.226 234.734 177.628 270.69 209.269 291.609Z" fill="#C2ECFD"/>
<path opacity="0.5" d="M139.729 125.362C166.331 157.55 156.716 233.546 203.076 274.567" stroke="white" stroke-width="1.7443" stroke-miterlimit="10" stroke-linecap="round" stroke-linejoin="round"/>
<path opacity="0.5" d="M191.649 163.157C194.688 179.428 184.229 197.688 181.802 207.813C179.375 217.939 178.092 235.177 180.696 245.348" stroke="white" stroke-width="1.7443" stroke-miterlimit="10" stroke-linecap="round" stroke-linejoin="round"/>
<path d="M115.249 322.131C114.1 315.625 95.9339 275.071 74.9069 285.931C62.4159 292.382 64.6629 316.136 84.1729 334.081C80.3439 330.377 75.9219 326.178 70.6969 325.14C67.8739 324.58 64.4199 325.879 62.3049 327.831C60.4239 329.568 59.8699 332.312 59.7829 334.871C59.4669 344.179 64.3199 353.497 72.1269 358.574C67.8119 356.163 64.0729 353.144 59.1479 352.721C57.5479 352.584 54.8349 353.5 54.0949 354.925C53.2889 356.477 53.3449 362.291 62.8449 366.633C24.1249 359.289 21.8659 375.794 35.7839 375.794C49.7019 375.794 149.934 375.794 149.934 375.794" fill="#ECF8FF"/>
<path d="M187.811 289.929C185.972 279.514 166.789 214.042 133.125 231.428C113.129 241.756 116.725 279.784 147.959 308.514C141.829 302.585 134.749 295.861 126.384 294.2C121.865 293.303 116.335 295.383 112.949 298.508C109.937 301.289 109.051 305.681 108.912 309.778C108.406 324.679 116.175 339.597 128.673 347.725C121.765 343.865 115.779 339.032 107.894 338.355C105.332 338.135 100.99 339.602 99.8038 341.883C98.5138 344.367 98.6038 353.675 113.811 360.627C51.8228 348.87 48.2068 375.294 70.4888 375.294C92.7708 375.294 217.746 375.294 217.746 375.294" fill="#DFF5FF"/>
<path d="M441.301 322.131C442.45 315.625 460.616 275.071 481.643 285.931C494.134 292.382 491.888 316.136 472.377 334.081C476.206 330.377 480.628 326.178 485.853 325.14C488.676 324.58 492.131 325.879 494.245 327.831C496.126 329.568 496.68 332.312 496.767 334.871C497.083 344.179 492.23 353.497 484.423 358.574C488.738 356.163 492.477 353.144 497.402 352.721C499.002 352.584 501.715 353.5 502.456 354.925C503.262 356.477 503.205 362.291 493.706 366.633C532.426 359.289 534.685 375.794 520.767 375.794C506.849 375.794 406.617 375.794 406.617 375.794" fill="#ECF8FF"/>
<path d="M368.74 289.929C370.579 279.514 389.762 214.042 423.426 231.428C443.422 241.756 439.826 279.784 408.593 308.514C414.723 302.585 421.802 295.861 430.168 294.2C434.687 293.303 440.217 295.383 443.603 298.508C446.615 301.289 447.501 305.681 447.64 309.778C448.145 324.679 440.377 339.597 427.879 347.725C434.787 343.865 440.773 339.032 448.658 338.355C451.22 338.135 455.562 339.602 456.747 341.883C458.037 344.367 457.947 353.675 442.74 360.627C504.728 348.87 508.344 375.294 486.062 375.294C463.78 375.294 338.805 375.294 338.805 375.294" fill="#DFF5FF"/>
<path d="M220.26 74.4903L229.393 79.3613L224.827 67.4873" fill="#D7EDFC"/>
<path d="M211.225 78.6119C221.886 78.6119 230.528 69.9696 230.528 59.3089C230.528 48.6481 221.886 40.0059 211.225 40.0059C200.564 40.0059 191.922 48.6481 191.922 59.3089C191.922 69.9696 200.564 78.6119 211.225 78.6119Z" fill="#D7EDFC"/>
<path d="M210.092 48.387C213.987 48.041 217.437 50.929 217.782 54.824C217.882 55.95 217.689 57.09 217.21 58.213L216.538 59.88L214.178 65.989L211.673 66.211L209.169 66.433L205.812 60.831L204.816 59.313C204.146 58.292 203.756 57.204 203.656 56.077C203.309 52.182 206.197 48.732 210.092 48.387ZM209.995 47.304C205.496 47.703 202.172 51.674 202.572 56.173C202.695 57.563 203.19 58.818 203.906 59.909L208.596 67.575L211.769 67.294L214.942 67.012L218.209 58.64C218.721 57.44 218.988 56.118 218.864 54.728C218.465 50.228 214.495 46.905 209.995 47.304Z" fill="#87C0EC"/>
<path d="M212.306 73.3506C210.548 73.5066 208.996 72.2076 208.84 70.4496L208.633 68.1216L214.999 67.5566L215.206 69.8846C215.363 71.6426 214.064 73.1946 212.306 73.3506Z" fill="#87C0EC"/>
<path d="M207.346 57.2902C207.068 57.2902 206.83 57.0772 206.805 56.7942C206.779 56.4962 206.999 56.2312 207.299 56.2052L214.216 55.5902C214.514 55.5702 214.779 55.7842 214.805 56.0842C214.832 56.3822 214.611 56.6472 214.311 56.6732L207.394 57.2882C207.378 57.2902 207.362 57.2902 207.346 57.2902Z" fill="#87C0EC"/>
<path d="M211.718 67.2686C211.44 67.2686 211.202 67.0556 211.177 66.7726L210.264 56.4866C210.237 56.1886 210.458 55.9236 210.758 55.8976C211.063 55.8656 211.321 56.0916 211.347 56.3916L212.26 66.6776C212.287 66.9756 212.066 67.2406 211.766 67.2666C211.75 67.2676 211.734 67.2686 211.718 67.2686Z" fill="#87C0EC"/>
<path d="M320.119 92.7552L311.787 97.1992L315.953 86.3682" fill="#D7EDFC"/>
<path d="M328.361 96.5159C338.086 96.5159 345.97 88.632 345.97 78.9069C345.97 69.1817 338.086 61.2979 328.361 61.2979C318.636 61.2979 310.752 69.1817 310.752 78.9069C310.752 88.632 318.636 96.5159 328.361 96.5159Z" fill="#D7EDFC"/>
<path d="M338.129 80.7097C338.324 79.9807 338.428 79.2147 338.428 78.4247C338.428 77.6907 338.338 76.9777 338.169 76.2957L336.551 76.4757C336.352 75.6497 336.032 74.8697 335.608 74.1567L336.893 73.1287C336.515 72.4767 336.047 71.8627 335.488 71.3037C335.271 71.0857 335.044 70.8817 334.81 70.6917C334.749 70.6407 334.687 70.5917 334.625 70.5437C334.359 70.3387 334.083 70.1507 333.799 69.9797L332.773 71.2647C332.692 71.2147 332.609 71.1657 332.527 71.1177C332.434 71.0637 332.34 71.0117 332.244 70.9617C331.688 70.6697 331.096 70.4387 330.476 70.2757L330.658 68.6437C329.929 68.4487 329.163 68.3457 328.374 68.3457C327.64 68.3457 326.927 68.4347 326.244 68.6047L326.426 70.2297C325.597 70.4247 324.816 70.7417 324.102 71.1607L323.079 69.8807C322.426 70.2577 321.811 70.7257 321.252 71.2837C320.733 71.8037 320.293 72.3717 319.93 72.9727L321.204 73.9917C320.765 74.6967 320.43 75.4717 320.215 76.2957L318.594 76.1137C318.399 76.8427 318.295 77.6087 318.295 78.3977C318.295 79.1317 318.385 79.8457 318.554 80.5277L320.167 80.3477C320.363 81.1767 320.682 81.9587 321.104 82.6747L319.829 83.6937C320.207 84.3477 320.675 84.9617 321.233 85.5207C321.752 86.0397 322.32 86.4807 322.922 86.8437L323.936 85.5767C324.642 86.0157 325.418 86.3547 326.242 86.5707L326.063 88.1807C326.791 88.3757 327.556 88.4797 328.347 88.4797C329.081 88.4797 329.793 88.3897 330.476 88.2207L330.298 86.6187C331.13 86.4227 331.914 86.1027 332.631 85.6797L333.642 86.9447C334.294 86.5677 334.91 86.0997 335.469 85.5407C335.988 85.0217 336.428 84.4537 336.791 83.8517L335.527 82.8417C335.964 82.1347 336.299 81.3577 336.513 80.5317L338.129 80.7097ZM333.532 78.5907C333.446 81.2997 331.24 83.5057 328.531 83.5917C325.541 83.6867 323.095 81.2427 323.191 78.2517C323.277 75.5427 325.483 73.3367 328.192 73.2507C331.183 73.1557 333.627 75.6007 333.532 78.5907Z" fill="#87C0EC"/>
<path d="M381.045 318.184H219.254V366.926H381.045V318.184Z" fill="white"/>
<path d="M117.987 366.926H219.254V318.184H117.987V366.926Z" fill="#EDEDED"/>
<path d="M206.834 309.708V321.96H366.363C372.382 321.96 377.261 326.84 377.261 332.859V352.251C377.261 358.27 372.382 363.149 366.363 363.149H206.834V375.401H372.165C382.586 375.401 391.034 366.953 391.034 356.532V328.577C391.034 318.156 382.586 309.708 372.165 309.708H206.834Z" fill="#5C87C7"/>
<path d="M206.834 309.708H108.693V321.96H206.834V309.708Z" fill="#4061B0"/>
<path d="M206.834 363.149H108.693V375.401H206.834V363.149Z" fill="#4061B0"/>
<path d="M117.988 331.842H219.255" stroke="#CCCCCC" stroke-width="4.3508" stroke-miterlimit="10"/>
<path d="M117.988 345.318H219.255" stroke="#CCCCCC" stroke-width="4.3508" stroke-miterlimit="10"/>
<path d="M117.988 356.499H219.255" stroke="#CCCCCC" stroke-width="4.3508" stroke-miterlimit="10"/>
<path d="M347.06 331.842L219.254 334.018V329.667L347.06 331.842Z" fill="#E2E2E2"/>
<path d="M360.259 345.319L219.254 347.494V343.144L360.259 345.319Z" fill="#E2E2E2"/>
<path d="M347.06 356.499L219.254 358.674V354.323L347.06 356.499Z" fill="#E2E2E2"/>
<path d="M147.48 309.708H276.792V227.128H147.48C139.641 227.128 133.287 233.483 133.287 241.321V295.514C133.287 303.354 139.641 309.708 147.48 309.708Z" fill="#DB9821"/>
<path d="M230.621 301.233H367.346V235.605H230.621V301.233Z" fill="white"/>
<path d="M379.765 227.129V239.381H245.302C239.283 239.381 234.404 244.261 234.404 250.28V286.559C234.404 292.578 239.284 297.458 245.302 297.458H379.765V309.71H239.5C229.079 309.71 220.631 301.262 220.631 290.841V246C220.631 235.579 229.079 227.131 239.5 227.131H379.765V227.129Z" fill="#E2B659"/>
<path d="M264.605 249.263L367.345 247.087V251.438L264.605 249.263Z" fill="#E5E5E5"/>
<path d="M243.332 258.112L367.346 255.936V260.287L243.332 258.112Z" fill="#E5E5E5"/>
<path d="M251.408 279.626L367.346 277.451V281.801L251.408 279.626Z" fill="#E5E5E5"/>
<path d="M264.605 290.806L367.345 288.63V292.981L264.605 290.806Z" fill="#E5E5E5"/>
<path d="M363.875 211.426H180.303V228.351H363.875V211.426Z" fill="white"/>
<path d="M363.875 154.524H180.303V171.449H363.875V154.524Z" fill="#6D8EAF"/>
<path d="M369.896 137.599H170.701V154.524H369.896V137.599Z" fill="#E2B659"/>
<path d="M363.874 171.448H184.859V188.373H363.874V171.448Z" fill="#CE631A"/>
<path d="M362.083 188.375H193.402V211.426H362.083V188.375Z" fill="#6F6865"/>
<path d="M212.525 199.899H232.705" stroke="#A6A3A3" stroke-width="7.8116" stroke-miterlimit="10"/>
<path d="M243.771 199.899H342.556" stroke="#A6A3A3" stroke-width="7.8116" stroke-miterlimit="10"/>
<path d="M199.262 179.912H342.556" stroke="#D29075" stroke-width="7.8116" stroke-miterlimit="10"/>
<path d="M270.908 162.986H356.714" stroke="#F0EFE1" stroke-width="7.8116" stroke-miterlimit="10"/>
<path d="M180.303 146.062H356.714" stroke="#F0EFE1" stroke-width="7.8116" stroke-miterlimit="10"/>
<path opacity="0.2" d="M147.175 293.055C140.805 291.3 135.957 285.896 135.577 279.299C135.562 278.977 135.548 278.663 135.548 278.348C135.548 278.26 135.548 278.158 135.563 278.063C135.548 277.975 135.548 277.873 135.548 277.778C135.548 277.464 135.563 277.149 135.577 276.827C135.957 270.231 140.806 264.827 147.175 263.071C171.169 256.431 188.8 234.434 188.8 208.327C188.8 204.817 188.486 201.38 187.864 198.045C187.762 197.475 187.652 196.912 187.528 196.356C187.44 195.946 187.352 195.537 187.25 195.127C187.25 195.105 187.243 195.076 187.235 195.054C187.184 194.842 187.133 194.63 187.074 194.418C186.979 194.008 186.877 193.614 186.76 193.211C186.592 192.597 186.416 191.99 186.226 191.383H184.288C184.354 191.58 184.42 191.778 184.471 191.975C184.486 192.012 184.5 192.041 184.508 192.077C184.618 192.421 184.72 192.764 184.815 193.108C184.881 193.335 184.947 193.554 184.998 193.781C185.1 194.139 185.195 194.49 185.283 194.849C185.342 195.076 185.4 195.302 185.444 195.522C185.539 195.888 185.62 196.246 185.693 196.612C185.722 196.736 185.752 196.861 185.773 196.985C185.78 197.029 185.795 197.08 185.802 197.131C185.89 197.548 185.97 197.965 186.043 198.382C186.643 201.614 186.95 204.956 186.95 208.328C186.95 232.951 170.386 254.728 146.685 261.288C139.35 263.314 134.143 269.508 133.734 276.726C133.712 277.077 133.705 277.428 133.705 277.779C133.705 277.874 133.705 277.976 133.712 278.064C133.705 278.159 133.705 278.261 133.705 278.349C133.705 278.7 133.712 279.051 133.734 279.402C134.144 286.62 139.35 292.821 146.685 294.84C170.386 301.4 186.95 323.185 186.95 347.8C186.95 351.171 186.643 354.521 186.043 357.753C185.217 362.36 183.783 366.843 181.78 371.099H82.2299C80.2259 366.843 78.7929 362.36 77.9589 357.746C77.3589 354.521 77.0599 351.172 77.0599 347.8C77.0599 323.185 93.6239 301.4 117.325 294.84C124.66 292.822 129.859 286.62 130.276 279.402C130.298 279.051 130.305 278.7 130.305 278.349C130.305 278.261 130.305 278.159 130.298 278.064C130.305 277.976 130.305 277.874 130.305 277.779C130.305 277.428 130.298 277.077 130.276 276.726C129.859 269.508 124.66 263.314 117.325 261.288C93.6239 254.728 77.0599 232.951 77.0599 208.328C77.0599 204.957 77.3599 201.615 77.9589 198.382C78.0609 197.804 78.1779 197.234 78.3029 196.656C78.3029 196.641 78.3099 196.627 78.3099 196.612C78.4339 196.056 78.5589 195.5 78.6979 194.945C78.7049 194.916 78.7129 194.886 78.7199 194.85C78.8299 194.426 78.9389 193.994 79.0639 193.578C79.0709 193.541 79.0859 193.512 79.0929 193.476C79.1299 193.315 79.1809 193.147 79.2319 192.986C79.3119 192.679 79.4079 192.379 79.5029 192.079C79.5099 192.042 79.5249 192.013 79.5399 191.977C79.5909 191.78 79.6569 191.582 79.7229 191.385H77.7849C77.5949 191.992 77.4189 192.599 77.2509 193.213C77.1339 193.615 77.0319 194.01 76.9369 194.42C76.8779 194.632 76.8269 194.844 76.7759 195.056C76.7689 195.078 76.7609 195.107 76.7609 195.129C76.6589 195.539 76.5709 195.948 76.4829 196.358C76.3589 196.914 76.2489 197.477 76.1469 198.047C75.5249 201.382 75.2109 204.819 75.2109 208.329C75.2109 234.436 92.8349 256.433 116.836 263.073C123.198 264.828 128.054 270.232 128.427 276.829C128.449 277.151 128.456 277.465 128.456 277.78C128.456 277.875 128.456 277.977 128.449 278.065C128.456 278.16 128.456 278.262 128.456 278.35C128.456 278.664 128.449 278.979 128.427 279.301C128.054 285.897 123.198 291.301 116.836 293.057C92.8349 299.704 75.2109 321.694 75.2109 347.801C75.2109 351.311 75.5249 354.748 76.1469 358.083C77.0979 363.334 78.7799 368.321 81.0689 372.95H182.945C185.234 368.321 186.916 363.334 187.867 358.083C188.489 354.748 188.803 351.311 188.803 347.801C188.8 321.692 171.168 299.702 147.175 293.055Z" fill="#649DE1"/>
<path d="M186.951 347.799C186.951 351.17 186.644 354.52 186.044 357.752C185.218 362.359 183.784 366.842 181.781 371.098H82.2305C80.2265 366.842 78.7935 362.359 77.9595 357.745C77.3595 354.52 77.0605 351.171 77.0605 347.799C77.0605 323.184 93.6245 301.399 117.326 294.839C124.661 292.821 129.86 286.619 130.277 279.401C130.299 279.05 130.306 278.699 130.306 278.348C130.306 278.26 130.306 278.158 130.299 278.063C130.306 277.975 130.306 277.873 130.306 277.778C130.306 277.427 130.299 277.076 130.277 276.725C129.86 269.507 124.661 263.313 117.326 261.287C93.6245 254.727 77.0605 232.95 77.0605 208.327C77.0605 204.956 77.3605 201.614 77.9595 198.381C78.0615 197.803 78.1785 197.233 78.3035 196.655C78.3035 196.64 78.3105 196.626 78.3105 196.611C78.4275 196.055 78.5595 195.499 78.6985 194.944C78.7055 194.915 78.7136 194.885 78.7206 194.849C78.8376 194.388 78.9546 193.935 79.0936 193.474C79.2176 193.006 79.3566 192.538 79.5036 192.077C79.5766 191.843 79.6495 191.609 79.7225 191.382H184.29C184.363 191.609 184.436 191.843 184.509 192.077C184.619 192.421 184.721 192.764 184.816 193.108C184.882 193.335 184.948 193.554 184.999 193.781C185.101 194.139 185.196 194.49 185.284 194.849C185.343 195.076 185.401 195.302 185.445 195.522C185.54 195.888 185.621 196.246 185.694 196.612C185.731 196.78 185.767 196.956 185.804 197.131C185.892 197.548 185.972 197.965 186.045 198.382C186.645 201.614 186.952 204.956 186.952 208.328C186.952 232.951 170.388 254.728 146.687 261.288C139.352 263.314 134.145 269.508 133.736 276.726C133.714 277.077 133.707 277.428 133.707 277.779C133.707 277.874 133.707 277.976 133.714 278.064C133.707 278.159 133.707 278.261 133.707 278.349C133.707 278.7 133.714 279.051 133.736 279.402C134.146 286.62 139.352 292.821 146.687 294.84C170.387 301.399 186.951 323.184 186.951 347.799Z" fill="white"/>
<path opacity="0.5" d="M186.951 347.799C186.951 351.17 186.644 354.52 186.044 357.752C185.218 362.359 183.784 366.842 181.781 371.098H82.2305C80.2265 366.842 78.7935 362.359 77.9595 357.745C77.3595 354.52 77.0605 351.171 77.0605 347.799C77.0605 323.184 93.6245 301.399 117.326 294.839C124.661 292.821 129.86 286.619 130.277 279.401C130.299 279.05 130.306 278.699 130.306 278.348C130.306 278.26 130.306 278.158 130.299 278.063C130.306 277.975 130.306 277.873 130.306 277.778C130.306 277.427 130.299 277.076 130.277 276.725C129.86 269.507 124.661 263.313 117.326 261.287C93.6245 254.727 77.0605 232.95 77.0605 208.327C77.0605 204.956 77.3605 201.614 77.9595 198.381C78.0615 197.803 78.1785 197.233 78.3035 196.655C78.3035 196.64 78.3105 196.626 78.3105 196.611C78.4275 196.055 78.5595 195.499 78.6985 194.944C78.7055 194.915 78.7136 194.885 78.7206 194.849C78.8376 194.388 78.9546 193.935 79.0936 193.474C79.2176 193.006 79.3566 192.538 79.5036 192.077C79.5766 191.843 79.6495 191.609 79.7225 191.382H184.29C184.363 191.609 184.436 191.843 184.509 192.077C184.619 192.421 184.721 192.764 184.816 193.108C184.882 193.335 184.948 193.554 184.999 193.781C185.101 194.139 185.196 194.49 185.284 194.849C185.343 195.076 185.401 195.302 185.445 195.522C185.54 195.888 185.621 196.246 185.694 196.612C185.731 196.78 185.767 196.956 185.804 197.131C185.892 197.548 185.972 197.965 186.045 198.382C186.645 201.614 186.952 204.956 186.952 208.328C186.952 232.951 170.388 254.728 146.687 261.288C139.352 263.314 134.145 269.508 133.736 276.726C133.714 277.077 133.707 277.428 133.707 277.779C133.707 277.874 133.707 277.976 133.714 278.064C133.707 278.159 133.707 278.261 133.707 278.349C133.707 278.7 133.714 279.051 133.736 279.402C134.146 286.62 139.352 292.821 146.687 294.84C170.387 301.399 186.951 323.184 186.951 347.799Z" fill="#DBEAF8"/>
<path d="M86.6875 240.688C86.6875 240.688 95.3535 254.89 116.133 261.42C121.454 262.984 123.248 264.137 126.311 266.962C129.375 269.787 130.419 274.751 130.3 278.678C130.259 281.719 132.003 326.215 132.003 331.758C132.003 336.987 132.681 333.114 132.531 331.989C133.07 300.503 133.71 277.337 133.71 277.337C133.71 277.337 135.593 267.439 138.507 266.072C141.421 264.706 151.99 259.797 156.317 258.585C160.644 257.373 171.098 247.846 171.098 247.846C171.098 247.846 184.378 228.908 185.186 226.483C185.994 224.058 179.182 223.827 179.182 223.827L86.6875 240.688Z" fill="#E6983C"/>
<path d="M136.8 241.644C164.632 237.277 186.464 229.076 185.562 223.326C184.659 217.577 161.366 216.456 133.533 220.823C105.701 225.189 83.87 233.39 84.7721 239.14C85.6742 244.89 108.968 246.01 136.8 241.644Z" fill="#F0CD46"/>
<g opacity="0.5">
<path d="M117.057 254.315C116.46 254.315 115.853 254.218 115.256 254.013C111.283 252.649 107.604 250.911 104.319 248.847C101.727 247.219 100.946 243.797 102.574 241.205C104.202 238.614 107.624 237.831 110.216 239.46C112.781 241.071 115.688 242.44 118.856 243.528C121.751 244.522 123.292 247.675 122.298 250.571C121.51 252.869 119.359 254.315 117.057 254.315Z" fill="white"/>
<path d="M95.3827 237.962C93.5507 237.962 91.7577 237.054 90.7007 235.394C81.0357 220.205 83.5237 203.149 83.6347 202.431C84.1007 199.405 86.9347 197.328 89.9557 197.796C92.9757 198.261 95.0487 201.081 94.5937 204.1C94.5607 204.326 92.7047 217.894 100.054 229.444C101.697 232.026 100.936 235.452 98.3527 237.096C97.4307 237.682 96.4007 237.962 95.3827 237.962Z" fill="white"/>
</g>
<g opacity="0.5">
<path d="M117.057 301.197C116.46 301.197 115.853 301.294 115.256 301.499C111.283 302.863 107.604 304.601 104.319 306.665C101.727 308.293 100.946 311.715 102.574 314.307C104.202 316.898 107.624 317.681 110.216 316.052C112.781 314.441 115.688 313.072 118.856 311.984C121.751 310.99 123.292 307.837 122.298 304.941C121.51 302.642 119.359 301.197 117.057 301.197Z" fill="white"/>
<path d="M95.3827 317.549C93.5507 317.549 91.7577 318.457 90.7007 320.117C81.0357 335.306 83.5237 352.362 83.6347 353.08C84.1007 356.106 86.9347 358.183 89.9557 357.715C92.9757 357.25 95.0487 354.43 94.5937 351.411C94.5607 351.185 92.7047 337.617 100.054 326.067C101.697 323.485 100.936 320.059 98.3527 318.415C97.4307 317.83 96.4007 317.549 95.3827 317.549Z" fill="white"/>
</g>
<path d="M147.175 293.055C140.805 291.3 135.957 285.896 135.577 279.299C135.562 278.977 135.548 278.663 135.548 278.348C135.548 278.26 135.548 278.158 135.563 278.063C135.548 277.975 135.548 277.873 135.548 277.778C135.548 277.464 135.563 277.149 135.577 276.827C135.957 270.231 140.806 264.827 147.175 263.071C171.169 256.431 188.8 234.434 188.8 208.327C188.8 204.817 188.486 201.38 187.864 198.045C187.762 197.475 187.652 196.912 187.528 196.356C187.44 195.946 187.352 195.537 187.25 195.127C187.25 195.105 187.243 195.076 187.235 195.054C187.184 194.842 187.133 194.63 187.074 194.418C186.979 194.008 186.877 193.614 186.76 193.211C186.592 192.597 186.416 191.99 186.226 191.383H184.288C184.354 191.573 184.412 191.778 184.471 191.975C184.486 192.012 184.5 192.041 184.508 192.077C184.618 192.421 184.72 192.764 184.815 193.108C184.881 193.335 184.947 193.554 184.998 193.781C185.1 194.139 185.195 194.49 185.283 194.849C185.342 195.076 185.4 195.302 185.444 195.522C185.539 195.888 185.62 196.246 185.693 196.612C185.722 196.736 185.744 196.861 185.773 196.985C185.78 197.029 185.795 197.08 185.802 197.131C185.89 197.548 185.97 197.965 186.043 198.382C186.643 201.614 186.95 204.956 186.95 208.328C186.95 232.951 170.386 254.728 146.685 261.288C139.35 263.314 134.143 269.508 133.734 276.726C133.712 277.077 133.705 277.428 133.705 277.779C133.705 277.874 133.705 277.976 133.712 278.064C133.705 278.159 133.705 278.261 133.705 278.349C133.705 278.7 133.712 279.051 133.734 279.402C134.144 286.62 139.35 292.821 146.685 294.84C170.386 301.4 186.95 323.185 186.95 347.8C186.95 351.171 186.643 354.521 186.043 357.753C185.217 362.36 183.783 366.843 181.78 371.099H82.2299C80.2259 366.843 78.7929 362.36 77.9589 357.746C77.3589 354.521 77.0599 351.172 77.0599 347.8C77.0599 323.185 93.6239 301.4 117.325 294.84C124.66 292.822 129.859 286.62 130.276 279.402C130.298 279.051 130.305 278.7 130.305 278.349C130.305 278.261 130.305 278.159 130.298 278.064C130.305 277.976 130.305 277.874 130.305 277.779C130.305 277.428 130.298 277.077 130.276 276.726C129.859 269.508 124.66 263.314 117.325 261.288C93.6239 254.728 77.0599 232.951 77.0599 208.328C77.0599 204.957 77.3599 201.615 77.9589 198.382C78.0609 197.804 78.1779 197.227 78.3029 196.656C78.3029 196.641 78.3099 196.627 78.3099 196.612C78.4339 196.056 78.5589 195.5 78.6979 194.945C78.7049 194.916 78.7129 194.886 78.7199 194.85C78.8299 194.426 78.9389 193.994 79.0639 193.578C79.0709 193.541 79.0859 193.512 79.0929 193.476C79.1369 193.315 79.1809 193.147 79.2319 192.986C79.3119 192.679 79.4079 192.379 79.5029 192.079C79.5099 192.042 79.5249 192.013 79.5399 191.977C79.5989 191.78 79.6569 191.575 79.7229 191.385H77.7849C77.5949 191.992 77.4189 192.599 77.2509 193.213C77.1339 193.615 77.0319 194.01 76.9369 194.42C76.8779 194.632 76.8269 194.844 76.7759 195.056C76.7689 195.078 76.7609 195.107 76.7609 195.129C76.6589 195.539 76.5709 195.948 76.4829 196.358C76.3589 196.914 76.2489 197.477 76.1469 198.047C75.5249 201.382 75.2109 204.819 75.2109 208.329C75.2109 234.436 92.8349 256.433 116.836 263.073C123.198 264.828 128.054 270.232 128.427 276.829C128.449 277.151 128.456 277.465 128.456 277.78C128.456 277.875 128.456 277.977 128.449 278.065C128.456 278.16 128.456 278.262 128.456 278.35C128.456 278.664 128.449 278.979 128.427 279.301C128.054 285.897 123.198 291.301 116.836 293.057C92.8349 299.704 75.2109 321.694 75.2109 347.801C75.2109 351.311 75.5249 354.748 76.1469 358.083C77.0979 363.334 78.7799 368.321 81.0689 372.95H182.945C185.234 368.321 186.916 363.334 187.867 358.083C188.489 354.748 188.803 351.311 188.803 347.801C188.8 321.692 171.168 299.702 147.175 293.055Z" fill="#C0DBF4"/>
<path d="M202.795 369.928C202.795 372.895 200.39 375.3 197.423 375.3H66.5849C63.6179 375.3 61.2129 372.895 61.2129 369.928C61.2129 366.961 63.6179 364.556 66.5849 364.556H197.424C200.39 364.556 202.795 366.961 202.795 369.928Z" fill="#345375"/>
<path d="M175.487 225.512C175.573 225.918 174.479 226.492 173.044 226.796C171.609 227.1 170.376 227.017 170.29 226.611C170.204 226.205 171.298 225.631 172.733 225.327C174.168 225.024 175.401 225.106 175.487 225.512Z" fill="#E6983C"/>
<path d="M172.182 230.178C172.268 230.584 171.595 231.069 170.679 231.263C169.763 231.457 168.951 231.285 168.865 230.88C168.779 230.474 169.452 229.989 170.368 229.795C171.284 229.601 172.096 229.773 172.182 230.178Z" fill="#E6983C"/>
<path d="M167.987 228.946C168.073 229.351 167.4 229.837 166.484 230.031C165.568 230.225 164.756 230.053 164.67 229.648C164.584 229.242 165.257 228.757 166.173 228.563C167.09 228.368 167.902 228.54 167.987 228.946Z" fill="#E6983C"/>
<path d="M139.018 232.673C139.064 232.892 138.701 233.154 138.206 233.259C137.711 233.364 137.273 233.271 137.227 233.052C137.181 232.833 137.544 232.571 138.039 232.466C138.533 232.361 138.972 232.454 139.018 232.673Z" fill="#E6983C"/>
<path d="M161.402 225.872C161.448 226.091 161.085 226.353 160.59 226.458C160.095 226.563 159.657 226.47 159.611 226.251C159.565 226.032 159.928 225.77 160.423 225.665C160.918 225.56 161.356 225.653 161.402 225.872Z" fill="#E6983C"/>
<path d="M153.287 233.687C153.333 233.906 152.97 234.168 152.475 234.273C151.98 234.378 151.542 234.285 151.496 234.066C151.45 233.847 151.813 233.585 152.308 233.48C152.802 233.375 153.24 233.468 153.287 233.687Z" fill="#E6983C"/>
<path d="M142.461 238.861C142.507 239.08 142.144 239.342 141.649 239.447C141.155 239.552 140.716 239.459 140.67 239.24C140.624 239.021 140.987 238.759 141.482 238.654C141.976 238.55 142.415 238.642 142.461 238.861Z" fill="#E6983C"/>
<path d="M132.633 326.124L132.254 325.976L131.875 326.124C131.875 326.124 128.604 351.702 93.5 364.556C112.729 364.556 124.885 364.556 132.504 364.556C142.699 364.556 144.77 364.556 144.77 364.556C150.464 364.556 158.798 364.556 171.007 364.556C135.904 351.702 132.633 326.124 132.633 326.124Z" fill="#E6983C"/>
<path d="M186.403 191.964C186.403 194.818 162.048 197.131 132.005 197.131C101.962 197.131 77.6074 194.817 77.6074 191.964C77.6074 189.11 101.962 186.797 132.005 186.797C162.048 186.797 186.403 189.11 186.403 191.964Z" fill="#C1D9ED"/>
<path d="M197.423 184.009H66.5879C65.1029 184.009 63.7579 184.609 62.7849 185.581C61.8119 186.553 61.2129 187.899 61.2129 189.384C61.2129 192.346 63.6189 194.752 66.5879 194.752H77.7839H79.7219H184.289H186.227H197.423C200.392 194.752 202.798 192.346 202.798 189.384C202.798 186.415 200.392 184.009 197.423 184.009Z" fill="#345375"/>
<path d="M503.088 373.12L447.891 317.552L455.153 310.339L510.35 365.907C512.342 367.912 512.331 371.152 510.326 373.144C508.32 375.136 505.08 375.125 503.088 373.12Z" fill="#345375"/>
<path d="M506.358 369.151L450.789 313.208L453.372 310.642L508.941 366.585C509.65 367.298 509.646 368.451 508.932 369.16C508.219 369.868 507.067 369.864 506.358 369.151Z" fill="#5C87C7"/>
<path d="M471.224 294.355L436.604 259.499L396.033 299.795L430.653 334.651L471.224 294.355Z" fill="#E6B64E"/>
<path d="M448.928 272.016L441.691 264.73L401.121 305.027L408.357 312.312L448.928 272.016Z" fill="#EEC067"/>
<path d="M425.599 338.488L392.183 304.847C390.407 303.059 390.416 300.169 392.205 298.393L392.49 298.11C394.278 296.334 397.168 296.343 398.944 298.132L432.36 331.773C434.136 333.561 434.127 336.451 432.338 338.227L432.053 338.51C430.265 340.286 427.376 340.277 425.599 338.488Z" fill="#345375"/>
<path d="M425.313 342.249L388.42 305.108L392.055 303.768L426.677 338.623L425.313 342.249Z" fill="#223B51"/>
<path d="M422.16 347.099L383.55 308.229C382.555 307.227 382.56 305.608 383.562 304.613L383.946 304.231C384.948 303.236 386.567 303.241 387.562 304.243L426.172 343.113C427.167 344.115 427.162 345.734 426.16 346.729L425.776 347.111C424.774 348.106 423.155 348.101 422.16 347.099Z" fill="#345375"/>
<path d="M475.083 289.336L441.667 255.695C439.891 253.907 437.001 253.897 435.213 255.673L434.928 255.956C433.14 257.732 433.13 260.622 434.906 262.41L468.322 296.051C470.098 297.839 472.988 297.849 474.776 296.073L475.061 295.79C476.849 294.014 476.859 291.125 475.083 289.336Z" fill="#345375"/>
<path d="M478.845 289.076L441.952 251.935L440.588 255.561L475.21 290.416L478.845 289.076Z" fill="#223B51"/>
<path d="M483.716 285.954L445.106 247.084C444.111 246.082 442.492 246.077 441.49 247.072L441.106 247.454C440.104 248.449 440.099 250.068 441.094 251.07L479.704 289.94C480.699 290.942 482.318 290.947 483.32 289.952L483.704 289.57C484.706 288.575 484.711 286.956 483.716 285.954Z" fill="#345375"/>
<path d="M373.789 348.017H439.477C449.188 348.017 457.061 355.89 457.061 365.601H356.205C356.205 355.89 364.078 348.017 373.789 348.017Z" fill="#E6B64E"/>
<path d="M456.835 367.883H356.431C355.467 367.883 354.686 367.102 354.686 366.138C354.686 365.174 355.467 364.393 356.431 364.393H456.835C457.799 364.393 458.58 365.174 458.58 366.138C458.58 367.102 457.799 367.883 456.835 367.883Z" fill="#C49236"/>
<path d="M458.349 375.4H354.917C352.211 375.4 350.018 373.206 350.018 370.501C350.018 367.795 352.212 365.602 354.917 365.602H458.35C461.056 365.602 463.249 367.796 463.249 370.501C463.249 373.207 461.055 375.4 458.349 375.4Z" fill="#345375"/>
<path d="M445.543 352.749C445.543 353.166 445.205 353.504 444.788 353.504H401.281C400.447 353.504 399.771 352.828 399.771 351.994C399.771 351.16 400.447 350.484 401.281 350.484H443.278C444.529 350.484 445.543 351.498 445.543 352.749Z" fill="#F0CD46"/>
<path d="M41.6328 299.021C41.6328 299.021 77.3498 326.548 111.02 299.021" stroke="#263238" stroke-width="0.546" stroke-miterlimit="10"/>
<path d="M110.793 299.021C110.793 299.021 146.51 326.548 180.18 299.021" stroke="#263238" stroke-width="0.546" stroke-miterlimit="10"/>
<path d="M179.648 299.021C179.648 299.021 215.365 326.548 249.035 299.021" stroke="#263238" stroke-width="0.546" stroke-miterlimit="10"/>
<path d="M42.8727 299.245H40.5977V302.917H42.8727V299.245Z" fill="#407BFF"/>
<path opacity="0.2" d="M42.8727 299.245H40.5977V302.917H42.8727V299.245Z" fill="black"/>
<path d="M42.9552 299.987C43.0482 299.802 43.1062 299.596 43.1062 299.374C43.1062 298.617 42.4922 298.004 41.7362 298.004C40.9792 298.004 40.3652 298.618 40.3652 299.374C40.3652 299.595 40.4232 299.802 40.5162 299.987H42.9552Z" fill="#5C87C7"/>
<path d="M42.9976 314.168H40.4746V386.583H42.9976V314.168Z" fill="#3C5C85"/>
<g opacity="0.17">
<path d="M42.9976 308.965H40.4746V317.028H42.9976V308.965Z" fill="black"/>
</g>
<path d="M45.2568 304.894C45.2568 306.839 43.6798 308.415 41.7358 308.415C39.7908 308.415 38.2148 306.838 38.2148 304.894C38.2148 302.949 39.7918 301.373 41.7358 301.373C43.6798 301.372 45.2568 302.949 45.2568 304.894Z" fill="#5C87C7"/>
<path opacity="0.29" d="M38.5098 305.257C38.5098 305.321 38.5258 305.382 38.5288 305.445C38.9738 305.648 39.4638 305.768 39.9858 305.768C41.9308 305.768 43.5068 304.191 43.5068 302.247C43.5068 302.183 43.4908 302.122 43.4878 302.059C43.0428 301.856 42.5528 301.736 42.0308 301.736C40.0868 301.736 38.5098 303.313 38.5098 305.257Z" fill="#83B2EA"/>
<path d="M43.3947 314.921H40.0747L39.3477 307.469H44.1217L43.3947 314.921Z" fill="#5C87C7"/>
<path d="M40.3497 381.756H43.1197C43.7387 383.082 44.6267 383.994 45.6197 384.322L46.6237 384.654H36.8457L37.8497 384.322C38.8437 383.993 39.7317 383.082 40.3497 381.756Z" fill="#345375"/>
<path d="M48.1585 386.099H35.3105V385.406C35.3105 384.948 35.6825 384.576 36.1405 384.576H47.3286C47.7866 384.576 48.1585 384.948 48.1585 385.406V386.099Z" fill="#3C5C85"/>
<path d="M48.972 386.786H34.498V385.888C34.498 385.625 34.711 385.412 34.974 385.412H48.497C48.76 385.412 48.973 385.625 48.973 385.888L48.972 386.786Z" fill="#345375"/>
<path d="M112.08 299.245H109.805V302.917H112.08V299.245Z" fill="#407BFF"/>
<path opacity="0.2" d="M112.08 299.245H109.805V302.917H112.08V299.245Z" fill="black"/>
<path d="M112.162 299.987C112.255 299.802 112.313 299.596 112.313 299.374C112.313 298.617 111.699 298.004 110.943 298.004C110.186 298.004 109.572 298.618 109.572 299.374C109.572 299.595 109.63 299.802 109.723 299.987H112.162Z" fill="#5C87C7"/>
<path d="M112.205 314.168H109.682V386.583H112.205V314.168Z" fill="#3C5C85"/>
<g opacity="0.17">
<path d="M112.205 308.965H109.682V317.028H112.205V308.965Z" fill="black"/>
</g>
<path d="M114.464 304.894C114.464 306.839 112.887 308.415 110.943 308.415C108.999 308.415 107.422 306.838 107.422 304.894C107.422 302.949 108.999 301.373 110.943 301.373C112.887 301.373 114.464 302.949 114.464 304.894Z" fill="#5C87C7"/>
<path opacity="0.29" d="M107.717 305.257C107.717 305.321 107.733 305.382 107.736 305.445C108.181 305.648 108.671 305.768 109.193 305.768C111.138 305.768 112.714 304.191 112.714 302.247C112.714 302.183 112.698 302.122 112.695 302.059C112.25 301.856 111.76 301.736 111.238 301.736C109.294 301.736 107.717 303.313 107.717 305.257Z" fill="#83B2EA"/>
<path d="M112.602 314.921H109.282L108.555 307.469H113.329L112.602 314.921Z" fill="#5C87C7"/>
<path d="M109.557 381.756H112.327C112.946 383.082 113.834 383.994 114.827 384.322L115.831 384.654H106.053L107.057 384.322C108.051 383.993 108.939 383.082 109.557 381.756Z" fill="#345375"/>
<path d="M117.366 386.099H104.518V385.406C104.518 384.948 104.89 384.576 105.348 384.576H116.536C116.994 384.576 117.366 384.948 117.366 385.406V386.099Z" fill="#3C5C85"/>
<path d="M118.18 386.786H103.705V385.888C103.705 385.625 103.918 385.412 104.181 385.412H117.704C117.967 385.412 118.18 385.625 118.18 385.888V386.786Z" fill="#345375"/>
<path d="M181.289 299.245H179.014V302.917H181.289V299.245Z" fill="#407BFF"/>
<path opacity="0.2" d="M181.289 299.245H179.014V302.917H181.289V299.245Z" fill="black"/>
<path d="M181.371 299.987C181.464 299.802 181.522 299.596 181.522 299.374C181.522 298.617 180.908 298.004 180.152 298.004C179.395 298.004 178.781 298.618 178.781 299.374C178.781 299.595 178.839 299.802 178.932 299.987H181.371Z" fill="#5C87C7"/>
<path d="M181.414 314.168H178.891V386.583H181.414V314.168Z" fill="#3C5C85"/>
<g opacity="0.17">
<path d="M181.414 308.965H178.891V317.028H181.414V308.965Z" fill="black"/>
</g>
<path d="M183.673 304.894C183.673 306.839 182.096 308.415 180.152 308.415C178.208 308.415 176.631 306.838 176.631 304.894C176.631 302.949 178.208 301.373 180.152 301.373C182.096 301.373 183.673 302.949 183.673 304.894Z" fill="#5C87C7"/>
<path opacity="0.29" d="M176.926 305.257C176.926 305.321 176.942 305.382 176.945 305.445C177.39 305.648 177.88 305.768 178.402 305.768C180.347 305.768 181.923 304.191 181.923 302.247C181.923 302.183 181.907 302.122 181.904 302.059C181.459 301.856 180.969 301.736 180.447 301.736C178.503 301.736 176.926 303.313 176.926 305.257Z" fill="#83B2EA"/>
<path d="M181.811 314.921H178.492L177.764 307.469H182.538L181.811 314.921Z" fill="#5C87C7"/>
<path d="M178.768 381.756H181.538C182.157 383.082 183.045 383.994 184.038 384.322L185.042 384.654H175.264L176.268 384.322C177.261 383.993 178.149 383.082 178.768 381.756Z" fill="#345375"/>
<path d="M186.575 386.099H173.727V385.406C173.727 384.948 174.099 384.576 174.557 384.576H185.745C186.203 384.576 186.575 384.948 186.575 385.406V386.099Z" fill="#3C5C85"/>
<path d="M187.389 386.786H172.914V385.888C172.914 385.625 173.127 385.412 173.39 385.412H186.913C187.176 385.412 187.389 385.625 187.389 385.888V386.786Z" fill="#345375"/>
<path d="M250.496 299.245H248.221V302.917H250.496V299.245Z" fill="#407BFF"/>
<path opacity="0.2" d="M250.496 299.245H248.221V302.917H250.496V299.245Z" fill="black"/>
<path d="M250.578 299.987C250.671 299.802 250.729 299.596 250.729 299.374C250.729 298.617 250.115 298.004 249.359 298.004C248.602 298.004 247.988 298.618 247.988 299.374C247.988 299.595 248.046 299.802 248.139 299.987H250.578Z" fill="#5C87C7"/>
<path d="M250.621 314.168H248.098V386.583H250.621V314.168Z" fill="#3C5C85"/>
<g opacity="0.17">
<path d="M250.621 308.965H248.098V317.028H250.621V308.965Z" fill="black"/>
</g>
<path d="M252.88 304.894C252.88 306.839 251.303 308.415 249.359 308.415C247.414 308.415 245.838 306.838 245.838 304.894C245.838 302.949 247.415 301.373 249.359 301.373C251.303 301.372 252.88 302.949 252.88 304.894Z" fill="#5C87C7"/>
<path opacity="0.29" d="M246.133 305.257C246.133 305.321 246.149 305.382 246.152 305.445C246.597 305.648 247.087 305.768 247.609 305.768C249.554 305.768 251.13 304.191 251.13 302.247C251.13 302.183 251.114 302.122 251.111 302.059C250.666 301.856 250.176 301.736 249.654 301.736C247.709 301.736 246.133 303.313 246.133 305.257Z" fill="#83B2EA"/>
<path d="M251.018 314.921H247.699L246.971 307.469H251.746L251.018 314.921Z" fill="#5C87C7"/>
<path d="M247.975 381.756H250.745C251.364 383.082 252.252 383.994 253.245 384.322L254.249 384.654H244.471L245.475 384.322C246.468 383.993 247.356 383.082 247.975 381.756Z" fill="#345375"/>
<path d="M255.784 386.099H242.936V385.406C242.936 384.948 243.308 384.576 243.766 384.576H254.954C255.412 384.576 255.784 384.948 255.784 385.406V386.099Z" fill="#3C5C85"/>
<path d="M256.596 386.786H242.121V385.888C242.121 385.625 242.334 385.412 242.597 385.412H256.12C256.383 385.412 256.596 385.625 256.596 385.888V386.786Z" fill="#345375"/>
<path d="M250.065 87.3583C251.326 88.6983 253.004 89.6463 254.826 89.7913C257.027 89.9643 259.821 88.6733 260.439 86.3853C259.047 86.3033 259.142 84.4373 259.096 83.3743C259.05 82.3223 259.091 81.2383 259.142 80.4583C259.183 79.8013 259.229 79.3653 259.229 79.3653L250.969 74.1133C251.379 76.6073 251.598 79.1443 251.539 81.6733C251.499 83.4023 251.559 86.1913 249.068 86.0873C249.361 86.5383 249.695 86.9653 250.065 87.3583Z" fill="#E6A897"/>
<path d="M254.143 78.6045C254.143 78.6045 256.412 81.8595 259.097 83.3735C259.051 82.3215 259.092 81.2375 259.143 80.4575L254.143 78.6045Z" fill="#D99789"/>
<path d="M265.673 68.064C265.673 68.064 266.829 80.093 262.439 82.756C260.461 83.955 253.997 78.48 253.997 78.48C253.997 78.48 249.763 74.824 250.488 70.586C251.859 62.582 264.435 60.098 265.673 68.064Z" fill="#E6A897"/>
<path d="M267.8 63.4889C267.68 63.4049 266.656 64.1809 263.251 61.5019C261.872 60.4169 259.386 59.8669 256.573 60.5579C254.074 61.1719 253.328 63.1919 253.328 63.1919C253.328 63.1919 251.365 62.7739 249.808 64.7529C246.356 69.1389 250.876 79.1649 251.466 79.3159C252.056 79.4669 250.726 72.7499 253.54 72.8289C255.212 72.8759 255.739 75.7719 256.008 75.5029C256.277 75.2339 255.985 71.8889 256.254 71.1529C256.323 70.9659 256.804 70.6049 257.323 70.6719C258.63 70.8429 258.361 68.6469 259.438 68.3179C260.114 68.1109 262.197 68.1649 263.595 68.5339C269.093 69.9879 269.699 64.8089 267.8 63.4889Z" fill="#2F3D6A"/>
<path d="M253.303 73.8879C253.535 73.7829 253.922 73.7529 254.211 74.3469C254.506 74.9539 254.259 74.9069 254.195 75.2769C254.131 75.6479 254.488 75.6329 254.59 75.9529C254.692 76.2729 254.569 77.0269 253.908 76.8859C253.248 76.7449 253.094 75.7379 253.017 75.4359C252.941 75.1349 252.813 74.1089 253.303 73.8879Z" fill="#D99789"/>
<path d="M243.92 125.458C243.92 125.458 257.242 126.971 260.309 127.034C263.376 127.097 263.224 125.496 263.224 125.496C263.38 122.12 263.952 114.165 264.586 111.469C265.178 108.952 265.441 108.022 265.957 105.63C267.103 100.314 267.052 99.2987 268.266 92.7367L260.309 86.3407C260.309 86.3407 259.486 88.7887 256.15 88.8307C251.692 88.8877 250.305 85.7637 250.305 85.7637L239.452 92.9697L238.434 110.499L242.513 123.921" fill="#5392B8"/>
<path d="M280.703 170.346C280.703 170.346 280.276 172.906 279.936 173.781C279.595 174.656 276.723 173.849 276.534 173.284C276.344 172.718 277.438 168.555 277.438 168.555" fill="#D89A80"/>
<path d="M275.533 174.006C275.284 174.95 274.971 176.761 274.971 176.761L277.841 178.011L278.312 177.569C278.312 177.569 279.024 178.432 279.904 178.839C280.558 179.141 281.967 179.532 282.683 179.61C285.189 179.88 287.033 179.409 287.182 179.061C287.804 177.61 284.479 177.22 283.819 177.047C281.924 176.548 280.871 174.94 280.669 173.891C280.522 173.13 280.711 172.996 280.286 173.02C280.286 173.02 279.914 173.001 279.568 173.357C279.038 173.904 278.239 174.154 277.529 173.831C277.123 173.647 276.738 173.377 276.511 172.984C276.511 172.984 275.781 173.062 275.533 174.006Z" fill="#3D3D3D"/>
<path d="M268.013 136.881C272.501 137.763 277.933 138.417 282.468 137.819C281.834 139.636 280.48 141.376 279.888 143.936C277.932 152.389 277.253 163.743 276.757 170.768C276.757 170.768 277.696 172.571 280.704 171.198C285.199 160.097 293.047 137.598 292.974 132.717C292.882 126.503 277.372 125.003 266.006 123.472" fill="#2F3D6A"/>
<g opacity="0.5">
<path d="M248.202 124.439C244.628 127.049 268.014 136.88 268.014 136.88C270.608 137.39 273.134 137.618 275.679 137.612C275.92 137.148 276.145 136.673 276.249 136.161C276.387 135.482 276.313 134.776 276.432 134.093C276.663 132.765 277.616 131.643 278.768 130.944C279.92 130.245 281.259 129.92 282.59 129.706C285.752 129.196 291.273 129.554 291.273 129.554C284.245 124.373 270.574 125.541 263.876 125.115C262.593 127.229 248.715 124.065 248.202 124.439Z" fill="#48546C"/>
</g>
<g opacity="0.2">
<path d="M278.71 172.713C278.61 173.253 278.47 173.933 278.33 174.483C278.4 174.473 278.46 174.473 278.46 174.473C278.89 174.453 278.7 174.583 278.84 175.343C279.05 176.393 280.1 178.003 281.99 178.503C282.65 178.673 285.98 179.063 285.36 180.513C285.21 180.863 283.36 181.333 280.86 181.063C280.14 180.983 278.73 180.593 278.08 180.293C277.2 179.883 276.49 179.023 276.49 179.023L276.01 179.463L273.14 178.213C273.14 178.213 273.46 176.403 273.71 175.463C273.95 174.513 274.69 174.433 274.69 174.433C274.71 173.983 274.86 173.173 275.04 172.373C274.97 172.283 274.93 172.213 274.93 172.213C275.43 165.193 276.11 153.843 278.06 145.383C278.4 143.923 278.99 142.723 279.55 141.633C279.97 140.813 280.37 140.053 280.64 139.273C278.55 139.543 276.26 139.543 273.96 139.393C273.94 140.103 273.91 140.853 273.88 141.633C273.43 151.603 271.77 166.553 272.01 178.393C272.01 178.393 271.82 178.553 271.46 178.713C271.45 179.253 271.43 179.903 271.39 180.453C271.46 180.423 271.52 180.413 271.52 180.413C271.93 180.313 271.77 180.483 272.05 181.203C272.43 182.203 273.74 183.603 275.7 183.763C276.38 183.823 279.72 183.633 279.36 185.163C279.27 185.533 277.54 186.313 275.02 186.483C274.3 186.533 272.85 186.393 272.15 186.213C271.21 185.963 270.36 185.233 270.36 185.233L269.97 185.753L266.93 185.013C266.93 185.013 266.93 183.183 267.01 182.203C267.09 181.233 267.79 181.033 267.79 181.033H267.8C267.74 180.563 267.75 179.673 267.79 178.803C267.51 178.713 267.23 178.613 266.93 178.483C266.18 170.343 261.67 151.963 263.88 141.633C264.05 140.823 264.26 140.073 264.52 139.373C256.08 140.493 248.81 141.543 241.14 139.003C240.32 138.733 239.78 138.343 239.32 137.813H290.6C290.36 138.933 290.03 140.223 289.63 141.633C287.14 150.603 282.14 164.613 278.88 172.643C278.82 172.673 278.77 172.693 278.71 172.713Z" fill="#595959"/>
</g>
<path d="M273.29 176.254C273.29 176.254 273.313 178.849 273.13 179.77C272.946 180.691 269.978 180.394 269.693 179.87C269.408 179.346 269.763 175.056 269.763 175.056" fill="#D89A80"/>
<path d="M268.832 180.756C268.751 181.729 268.756 183.566 268.756 183.566L271.8 184.301L272.187 183.784C272.187 183.784 273.037 184.51 273.976 184.758C274.672 184.942 276.128 185.084 276.846 185.036C279.36 184.868 281.095 184.083 281.182 183.715C281.543 182.178 278.201 182.371 277.521 182.314C275.568 182.151 274.253 180.751 273.872 179.753C273.596 179.029 273.758 178.864 273.343 178.96C273.343 178.96 272.973 179.007 272.694 179.417C272.266 180.048 271.523 180.431 270.768 180.236C270.336 180.125 269.91 179.927 269.619 179.579C269.619 179.579 268.913 179.783 268.832 180.756Z" fill="#3D3D3D"/>
<path d="M240.403 123.922C239.677 125.612 239.272 127.474 239.097 129.3C238.946 130.882 239.127 132.518 239.727 133.996C240.412 135.682 241.755 137.13 243.513 137.729C245.711 138.478 248.047 138.828 250.355 139.006C255.003 139.365 259.661 138.8 264.265 138.195C264.958 138.104 265.65 138.012 266.342 137.92C262.768 147.577 267.949 168.262 268.756 177.031C272.001 178.471 273.836 176.939 273.836 176.939C273.468 159.089 277.446 134.157 275.038 129.892C273.574 127.299 256.104 123.876 255.757 123.922" fill="#2F3D6A"/>
<path d="M277.145 119.399C272.492 112.693 270.007 107.409 265.957 100.323L260.309 86.3418C260.309 86.3418 262.212 86.4468 262.583 86.4768C264.17 86.6028 265.786 86.8118 267.287 87.3668C269.446 88.1658 271.674 89.6348 272.725 91.7428C273.662 93.6238 274.234 95.6668 275.028 97.6088C275.914 99.7778 276.854 101.925 277.801 104.069C279.68 108.324 281.606 112.567 283.189 116.943" fill="#5392B8"/>
<path opacity="0.2" d="M266.738 101.702L267.496 97.165L273.065 109.369L271.221 109.819L266.738 101.702Z" fill="#101010"/>
<path d="M239.404 92.738C238.643 103.665 238.683 115.343 241.142 126.075C241.211 126.376 241.724 126.318 241.691 126.001C241.118 120.463 240.257 114.988 239.957 109.419C239.658 103.864 239.687 98.292 239.973 92.738C239.992 92.37 239.429 92.375 239.404 92.738Z" fill="black"/>
<path d="M289.998 125.158H246.961V126.705H289.998V125.158Z" fill="#ADBBDF"/>
<path d="M297.676 126.706H263.225L269.402 106.568C269.743 105.456 270.77 104.697 271.933 104.697H302.103C303.258 104.697 304.083 105.814 303.745 106.918L297.676 126.706Z" fill="#ADBBDF"/>
<path d="M298.108 126.706H264.176L270.353 106.568C270.694 105.456 271.721 104.697 272.884 104.697H303.054C304.209 104.697 305.035 105.814 304.696 106.918L298.778 126.21C298.689 126.504 298.416 126.706 298.108 126.706Z" fill="#E1E6F7"/>
<g opacity="0.2">
<path d="M244.448 96.3816C246.222 104.405 246.961 113.663 247.462 119.399C254.117 119.89 255.983 122.444 262.079 125.158C262.079 125.158 266.893 124.358 267.399 126.174C267.691 127.221 261.763 128.055 261.763 128.055C256.113 128.081 242.422 125.435 241.413 125.158C240.404 124.881 236.26 104.458 236.143 94.1786C236.126 92.7186 236.178 91.1346 237.091 89.9956C237.571 89.3966 238.246 88.9856 238.93 88.6366C242.906 86.6036 245.85 86.0486 250.306 85.7656" fill="#101010"/>
</g>
<path d="M261.238 126.401C261.908 125.558 263.128 125.436 264.205 125.462C265.002 125.482 265.797 125.545 266.587 125.652C266.947 125.701 267.361 125.785 267.399 126.175C267.437 126.565 265.653 126.174 264.717 126.445C266.55 126.602 268.392 126.652 270.23 126.595C270.444 126.588 270.665 126.581 270.864 126.66C271.063 126.739 271.235 126.929 271.221 127.143C271.21 127.31 271.093 127.45 270.969 127.562C270.455 128.024 269.753 128.207 269.073 128.326C266.262 128.818 263.307 128.733 260.693 127.586" fill="#D89A80"/>
<path d="M244.626 96.3876C244.773 104.965 245.998 112.751 245.831 121.327C252.486 121.818 255.868 123.111 261.963 125.824C261.963 125.824 262.326 127.034 261.762 128.055C261.297 128.225 241.856 127.404 240.257 125.931C238.819 124.606 236.259 104.458 236.141 94.1777C236.124 92.7177 236.176 91.1337 237.089 89.9947C237.569 89.3957 238.244 88.9847 238.928 88.6357C242.904 86.6027 245.848 86.0476 250.304 85.7646" fill="#5392B8"/>
<path d="M282.471 115.179C282.471 117.164 284.08 118.773 286.065 118.773C288.05 118.773 289.659 117.164 289.659 115.179C289.659 113.194 288.05 111.585 286.065 111.585C284.08 111.585 282.471 113.194 282.471 115.179Z" fill="white"/>
<g opacity="0.7">
<path d="M274.47 16.7962L275.779 16.7062C276.041 16.6882 276.269 16.8862 276.287 17.1482C276.305 17.4092 276.109 17.6362 275.848 17.6562L275.818 17.6582L274.571 17.7522L274.54 17.7542C274.275 17.7742 274.045 17.5762 274.025 17.3112C274.005 17.0462 274.203 16.8162 274.468 16.7962H274.47Z" fill="#C3E0FD"/>
<path d="M277.768 16.7162C278.65 16.7562 279.527 16.8412 280.399 16.9652C280.651 17.0012 280.827 17.2342 280.791 17.4862C280.755 17.7372 280.524 17.9122 280.273 17.8792C279.428 17.7652 278.578 17.6892 277.729 17.6552C277.47 17.6452 277.268 17.4262 277.278 17.1672C277.288 16.9082 277.507 16.7062 277.766 16.7162H277.768Z" fill="#C3E0FD"/>
<path d="M282.347 17.306C283.208 17.486 284.06 17.701 284.902 17.953C285.138 18.023 285.272 18.272 285.202 18.508C285.132 18.743 284.885 18.877 284.65 18.809C283.83 18.571 283.001 18.366 282.164 18.198C281.918 18.148 281.758 17.908 281.808 17.662C281.858 17.416 282.098 17.256 282.344 17.306H282.347Z" fill="#C3E0FD"/>
<path d="M286.779 18.5779C287.604 18.8829 288.416 19.2239 289.21 19.6039C289.425 19.7069 289.516 19.9639 289.413 20.1779C289.311 20.3919 289.055 20.4829 288.841 20.3819C288.069 20.0199 287.279 19.6939 286.476 19.4029C286.248 19.3199 286.13 19.0679 286.212 18.8399C286.294 18.6119 286.547 18.4939 286.775 18.5759L286.779 18.5779Z" fill="#C3E0FD"/>
<path d="M290.966 20.5252C291.73 20.9652 292.473 21.4462 293.183 21.9732C293.367 22.1102 293.406 22.3702 293.269 22.5552C293.133 22.7382 292.874 22.7772 292.69 22.6422C292.005 22.1402 291.287 21.6812 290.546 21.2622C290.342 21.1472 290.27 20.8882 290.386 20.6842C290.501 20.4802 290.76 20.4082 290.964 20.5242L290.966 20.5252Z" fill="#C3E0FD"/>
<path d="M294.718 23.2409C295.371 23.8409 295.981 24.4929 296.526 25.1979C296.661 25.3729 296.629 25.6239 296.454 25.7599C296.28 25.8949 296.03 25.8629 295.894 25.6899C295.374 25.0279 294.792 24.4129 294.165 23.8449C293.998 23.6929 293.985 23.4339 294.137 23.2669C294.289 23.0999 294.548 23.0869 294.715 23.2389L294.718 23.2409Z" fill="#C3E0FD"/>
<path d="M297.634 26.8719C298.068 27.6539 298.418 28.4869 298.66 29.3519C298.717 29.5569 298.598 29.7689 298.393 29.8269C298.189 29.8839 297.977 29.7659 297.919 29.5619C297.689 28.7589 297.358 27.9859 296.947 27.2559C296.84 27.0669 296.907 26.8259 297.097 26.7189C297.287 26.6119 297.527 26.6789 297.634 26.8689V26.8719Z" fill="#C3E0FD"/>
<path d="M299.023 31.337C299.102 32.231 299.069 33.132 298.941 34.016C298.912 34.218 298.724 34.358 298.522 34.329C298.321 34.3 298.181 34.113 298.209 33.912C298.325 33.08 298.349 32.238 298.27 31.406C298.25 31.198 298.403 31.013 298.611 30.993C298.819 30.973 299.004 31.126 299.024 31.334L299.023 31.337Z" fill="#C3E0FD"/>
<path d="M298.499 35.9691C298.241 36.8201 297.906 37.6431 297.517 38.4361C297.431 38.6121 297.218 38.6841 297.042 38.5981C296.867 38.5121 296.794 38.3011 296.879 38.1251C297.248 37.3601 297.563 36.5701 297.803 35.7611C297.86 35.5681 298.062 35.4591 298.255 35.5161C298.448 35.5731 298.557 35.7751 298.5 35.9681L298.499 35.9691Z" fill="#C3E0FD"/>
<path d="M296.543 40.168C296.068 40.913 295.538 41.623 294.959 42.29C294.837 42.431 294.623 42.446 294.482 42.324C294.342 42.202 294.326 41.99 294.447 41.849C295 41.203 295.504 40.517 295.956 39.797C296.058 39.634 296.273 39.585 296.435 39.687C296.597 39.789 296.647 40.004 296.545 40.166L296.543 40.168Z" fill="#C3E0FD"/>
<path d="M293.576 43.7149C292.927 44.3139 292.233 44.8639 291.502 45.3589C291.355 45.4589 291.155 45.4199 291.055 45.2729C290.956 45.1259 290.994 44.9269 291.139 44.8269C291.84 44.3449 292.504 43.8109 293.125 43.2299C293.259 43.1049 293.468 43.1119 293.593 43.2459C293.718 43.3799 293.711 43.5889 293.577 43.7139L293.576 43.7149Z" fill="#C3E0FD"/>
<path d="M289.799 46.3763C289.017 46.7853 288.203 47.1333 287.368 47.4163C287.208 47.4703 287.035 47.3853 286.981 47.2253C286.927 47.0663 287.012 46.8933 287.17 46.8383C287.974 46.5593 288.755 46.2173 289.506 45.8183C289.66 45.7363 289.85 45.7953 289.932 45.9483C290.014 46.1023 289.955 46.2923 289.802 46.3743L289.799 46.3763Z" fill="#C3E0FD"/>
<path d="M285.453 47.9415C284.588 48.1225 283.705 48.2315 282.814 48.2335C282.654 48.2335 282.524 48.1045 282.523 47.9445C282.523 47.7855 282.652 47.6555 282.811 47.6535C283.654 47.6465 284.498 47.5365 285.328 47.3565C285.489 47.3215 285.648 47.4235 285.683 47.5855C285.718 47.7465 285.616 47.9055 285.454 47.9405L285.453 47.9415Z" fill="#C3E0FD"/>
<path d="M280.815 48.0233C279.938 47.8253 279.083 47.4574 278.362 46.8954C278.242 46.8024 278.22 46.6303 278.313 46.5103C278.405 46.3913 278.578 46.3694 278.698 46.4604C279.35 46.9624 280.127 47.2923 280.939 47.4703C281.092 47.5033 281.189 47.6554 281.155 47.8074C281.122 47.9604 280.97 48.0573 280.818 48.0233H280.815Z" fill="#C3E0FD"/>
<path d="M277.009 45.378C276.532 44.605 276.226 43.757 276.043 42.876C276.014 42.736 276.104 42.599 276.244 42.569C276.384 42.54 276.52 42.629 276.55 42.768L276.552 42.7759C276.726 43.5879 277.024 44.3939 277.463 45.0929C277.542 45.2179 277.505 45.384 277.38 45.463C277.255 45.542 277.089 45.505 277.01 45.38L277.009 45.378Z" fill="#C3E0FD"/>
<path d="M276.039 40.8408C276.214 39.9448 276.629 39.1128 277.174 38.4018C277.256 38.2948 277.408 38.2738 277.516 38.3558C277.623 38.4368 277.643 38.5898 277.563 38.6968C277.06 39.3628 276.688 40.1268 276.536 40.9368C276.51 41.0738 276.378 41.1638 276.241 41.1388C276.104 41.1128 276.014 40.9808 276.039 40.8438V40.8408Z" fill="#C3E0FD"/>
<path d="M278.58 36.9766C279.271 36.4186 280.029 35.9556 280.818 35.5666C280.931 35.5106 281.068 35.5576 281.124 35.6706C281.18 35.7826 281.133 35.9196 281.022 35.9756C280.261 36.3576 279.535 36.8096 278.88 37.3456C278.779 37.4286 278.629 37.4136 278.546 37.3126C278.463 37.2116 278.478 37.0616 278.579 36.9786L278.58 36.9766Z" fill="#C3E0FD"/>
<path d="M282.644 34.8097C283.474 34.5237 284.324 34.3017 285.184 34.1357C285.299 34.1137 285.411 34.1887 285.433 34.3037C285.455 34.4187 285.38 34.5297 285.266 34.5527C284.426 34.7207 283.596 34.9437 282.79 35.2277C282.675 35.2687 282.548 35.2077 282.508 35.0927C282.468 34.9777 282.528 34.8507 282.643 34.8107L282.644 34.8097Z" fill="#C3E0FD"/>
<path d="M287.132 33.8559C288.003 33.7729 288.879 33.7439 289.753 33.7679C289.862 33.7709 289.947 33.8619 289.944 33.9699C289.941 34.0779 289.851 34.1639 289.743 34.1609C288.885 34.1429 288.026 34.1779 287.172 34.2639C287.059 34.2759 286.958 34.1929 286.946 34.0799C286.934 33.9669 287.017 33.8659 287.13 33.8539L287.132 33.8559Z" fill="#C3E0FD"/>
<path d="M291.714 33.9132C292.582 34.0172 293.444 34.1752 294.292 34.3882C294.389 34.4122 294.448 34.5112 294.424 34.6082C294.4 34.7052 294.302 34.7642 294.205 34.7402C293.371 34.5362 292.524 34.3872 291.671 34.2912C291.567 34.2792 291.492 34.1852 291.503 34.0812C291.514 33.9772 291.61 33.9022 291.714 33.9132Z" fill="#C3E0FD"/>
<path d="M296.171 34.9621C296.993 35.2591 297.796 35.6121 298.568 36.0221C298.649 36.0651 298.68 36.1651 298.637 36.2461C298.594 36.3271 298.495 36.3571 298.414 36.3151C297.653 35.9181 296.863 35.5771 296.054 35.2911C295.963 35.2591 295.915 35.1591 295.947 35.0681C295.979 34.9771 296.079 34.9291 296.17 34.9611L296.171 34.9621Z" fill="#C3E0FD"/>
<path d="M300.253 37.0384C300.975 37.5314 301.66 38.0794 302.298 38.6774C302.359 38.7344 302.362 38.8294 302.305 38.8894C302.249 38.9494 302.154 38.9534 302.093 38.8974C301.462 38.3144 300.787 37.7814 300.074 37.3014C300.001 37.2524 299.982 37.1534 300.031 37.0804C300.08 37.0084 300.179 36.9884 300.253 37.0384Z" fill="#C3E0FD"/>
<path d="M303.652 40.1012C304.217 40.7682 304.73 41.4782 305.189 42.2202C305.228 42.2832 305.209 42.3662 305.145 42.4052C305.082 42.4442 304.999 42.4252 304.96 42.3622C304.503 41.6342 303.993 40.9392 303.433 40.2872C303.381 40.2272 303.388 40.1362 303.448 40.0852C303.509 40.0342 303.599 40.0402 303.652 40.1012Z" fill="#C3E0FD"/>
<path d="M306.132 43.9408C306.511 44.7268 306.836 45.5368 307.112 46.3628C307.133 46.4248 307.099 46.4928 307.037 46.5138C306.975 46.5348 306.908 46.5008 306.887 46.4398C306.608 45.6248 306.281 44.8258 305.902 44.0538C305.871 43.9908 305.897 43.9138 305.961 43.8828C306.024 43.8508 306.1 43.8768 306.132 43.9408Z" fill="#C3E0FD"/>
<path d="M307.65 48.2462C307.855 49.0922 308.011 49.9512 308.104 50.8182C308.11 50.8762 308.068 50.9282 308.01 50.9352C307.952 50.9412 307.9 50.8992 307.894 50.8422C307.797 49.9862 307.638 49.1372 307.431 48.3002C307.416 48.2402 307.453 48.1782 307.513 48.1632C307.574 48.1492 307.635 48.1852 307.65 48.2462Z" fill="#C3E0FD"/>
<path d="M308.202 52.7768C308.192 53.6488 308.108 54.5218 307.939 55.3788C307.929 55.4298 307.88 55.4628 307.829 55.4528C307.778 55.4428 307.746 55.3938 307.755 55.3428C307.917 54.4978 307.996 53.6368 308.001 52.7758C308.001 52.7198 308.047 52.6758 308.102 52.6758C308.158 52.6758 308.203 52.7208 308.202 52.7768Z" fill="#C3E0FD"/>
<path d="M307.417 57.2693C307.12 58.0903 306.737 58.8783 306.28 59.6213C306.256 59.6593 306.206 59.6713 306.168 59.6483C306.13 59.6253 306.118 59.5753 306.141 59.5363C306.588 58.8003 306.962 58.0203 307.25 57.2093C307.266 57.1633 307.317 57.1393 307.363 57.1553C307.409 57.1723 307.433 57.2233 307.417 57.2693Z" fill="#C3E0FD"/>
<path d="M305.134 61.2117C304.577 61.8817 303.961 62.5007 303.304 63.0707C303.275 63.0957 303.231 63.0927 303.206 63.0637C303.181 63.0347 303.184 62.9917 303.213 62.9657C303.862 62.3967 304.469 61.7797 305.017 61.1137C305.044 61.0807 305.092 61.0767 305.124 61.1037C305.156 61.1307 305.161 61.1787 305.134 61.2117Z" fill="#C3E0FD"/>
<path d="M301.762 64.2734C301.05 64.7734 300.309 65.2274 299.546 65.6444C299.518 65.6594 299.484 65.6494 299.468 65.6214C299.453 65.5934 299.463 65.5594 299.491 65.5444C300.248 65.1254 300.983 64.6694 301.688 64.1694C301.717 64.1484 301.757 64.1554 301.777 64.1844C301.797 64.2134 301.791 64.2524 301.762 64.2734Z" fill="#C3E0FD"/>
<path d="M297.8 66.5188C297.011 66.8818 296.207 67.2098 295.393 67.5108C295.37 67.5198 295.344 67.5078 295.335 67.4838C295.326 67.4608 295.338 67.4348 295.361 67.4258C296.171 67.1218 296.971 66.7898 297.755 66.4238C297.781 66.4118 297.812 66.4228 297.824 66.4488C297.838 66.4758 297.826 66.5068 297.8 66.5188Z" fill="#C3E0FD"/>
<path d="M293.547 68.1406L291.044 68.8486C291.027 68.8536 291.008 68.8436 291.003 68.8256C290.998 68.8086 291.01 68.7896 291.027 68.7846L293.522 68.0646C293.543 68.0576 293.566 68.0686 293.573 68.0886C293.58 68.1086 293.569 68.1326 293.549 68.1396L293.547 68.1406Z" fill="#C3E0FD"/>
<path d="M289.145 69.2912L286.591 69.7762C286.58 69.7782 286.569 69.7712 286.567 69.7592C286.565 69.7482 286.573 69.7372 286.584 69.7352L289.134 69.2362C289.149 69.2322 289.164 69.2422 289.168 69.2562C289.172 69.2712 289.163 69.2862 289.148 69.2902L289.145 69.2912Z" fill="#C3E0FD"/>
<path d="M284.662 70.0673L282.079 70.3623C282.074 70.3633 282.07 70.3593 282.069 70.3543C282.068 70.3493 282.072 70.3453 282.077 70.3443L284.658 70.0353C284.666 70.0343 284.674 70.0393 284.676 70.0483C284.678 70.0573 284.672 70.0663 284.662 70.0673Z" fill="#C3E0FD"/>
<path d="M280.132 70.5119L278.852 70.5679L280.132 70.5049L280.136 70.5079L280.132 70.5119Z" fill="#C3E0FD"/>
</g>
<path d="M259.688 7.50385C259.563 7.42885 267.786 6.79785 267.786 6.79785L273.287 17.4049L265.297 12.3049L256.967 16.2569L239.383 14.0779L259.688 7.50385Z" fill="#BDE0F4"/>
<path d="M239.381 14.0777L273.286 17.4047L265.296 12.3047L239.381 14.0777Z" fill="#87C0EC"/>
<path d="M239.381 14.078L270.721 0L267.785 6.798L239.381 14.078L265.296 12.305L260.49 24.123L239.381 14.078Z" fill="#D7EDFC"/>
</svg>
